<svg width="17" height="15" viewBox="0 0 17 15" fill="none" xmlns="http://www.w3.org/2000/svg">
<path d="M0.597544 0.000334413C-0.111951 -0.0211797 -0.230919 1.00204 0.46474 1.1425L1.74638 1.42196C2.42433 4.65045 3.16334 7.86578 3.87996 11.0862C3.93888 11.3502 4.17418 11.5381 4.44589 11.538H14.6231C15.4072 11.5496 15.4072 10.3727 14.6231 10.3842H4.91108L4.65452 9.2307H15.1366C15.4083 9.23077 15.6436 9.04291 15.7026 8.77885L16.9861 3.01035C17.0661 2.65029 16.7909 2.30896 16.4205 2.30874C11.9864 2.30884 7.55226 2.30865 3.11822 2.30657L2.80319 0.818683C2.75624 0.596622 2.58289 0.422607 2.36026 0.373975L0.712278 0.0148852C0.674603 0.00623593 0.636212 0.00123493 0.597581 0.000290051L0.597544 0.000334413ZM6.85821 11.9231C6.0116 11.9231 5.31285 12.6187 5.31285 13.4615C5.31285 14.3044 6.0116 15 6.85821 15C7.70482 15 8.40356 14.3044 8.40356 13.4615C8.40356 12.6187 7.70482 11.9231 6.85821 11.9231ZM12.267 11.9231C11.4204 11.9231 10.7216 12.6187 10.7216 13.4615C10.7216 14.3044 11.4204 15 12.267 15C13.1136 15 13.8123 14.3044 13.8123 13.4615C13.8123 12.6187 13.1136 11.9231 12.267 11.9231Z" fill="#6B3E3B"/>
</svg>
