<svg width="16" height="14" viewBox="0 0 16 14" fill="none" xmlns="http://www.w3.org/2000/svg">
<path d="M13.831 1.37586C12.9379 0.482759 11.7793 0 10.5483 0C9.46207 0 8.42414 0.362069 7.60345 1.06207C6.78276 0.386207 5.74483 0 4.65862 0C3.40345 0 2.24483 0.482759 1.37586 1.37586C0.482758 2.24483 0 3.42759 0 4.65862C0 5.88965 0.482758 7.07241 1.37586 7.94138L7.28965 13.8552C7.33793 13.9517 7.45862 14 7.57931 14C7.7 14 7.82069 13.9517 7.91724 13.8552L13.831 7.96552C14.7241 7.09655 15.2069 5.91379 15.2069 4.68276C15.2069 3.45172 14.7 2.24483 13.831 1.37586Z" fill="white"/>
</svg>
