<svg width="17" height="17" viewBox="0 0 17 17" fill="none" xmlns="http://www.w3.org/2000/svg">
<path d="M7.48644 0C3.35853 0 0 3.35853 0 7.48644C0 11.6146 3.35853 14.9729 7.48644 14.9729C11.6146 14.9729 14.9729 11.6146 14.9729 7.48644C14.9729 3.35853 11.6146 0 7.48644 0ZM7.48644 13.5908C4.12054 13.5908 1.38211 10.8524 1.38211 7.48647C1.38211 4.12057 4.12054 1.38211 7.48644 1.38211C10.8523 1.38211 13.5908 4.12054 13.5908 7.48644C13.5908 10.8523 10.8523 13.5908 7.48644 13.5908Z" fill="white"/>
<path d="M16.7972 15.8208L12.8352 11.8587C12.5652 11.5888 12.128 11.5888 11.858 11.8587C11.588 12.1285 11.588 12.5662 11.858 12.8359L15.8201 16.798C15.955 16.9329 16.1317 17.0004 16.3086 17.0004C16.4853 17.0004 16.6622 16.9329 16.7972 16.798C17.0672 16.5282 17.0672 16.0905 16.7972 15.8208Z" fill="white"/>
</svg>
