<svg width="18" height="18" viewBox="0 0 18 18" fill="none" xmlns="http://www.w3.org/2000/svg">
<path d="M9 0C4.03738 0 0 4.03738 0 9C0 11.2842 0.858931 13.4655 2.41899 15.1428C4.10942 16.9487 6.49151 17.9877 8.9598 17.999C8.9732 17.999 8.98652 18 8.99993 18C8.99995 18 8.99995 18 8.99997 18C8.99998 18 8.99998 18 9 18C11.4826 18 13.8813 16.9585 15.5815 15.1421C17.1411 13.4652 18 11.284 18 9C18 4.03738 13.9626 0 9 0ZM9 0.545455C13.6618 0.545455 17.4545 4.3382 17.4545 9C17.4545 10.996 16.7554 12.9081 15.4789 14.4329C14.7118 12.5342 13.1674 11.103 11.2865 10.4544C10.6343 10.8992 9.84721 11.16 9 11.16C8.15277 11.16 7.36565 10.8991 6.71346 10.4544C4.8325 11.103 3.28819 12.5341 2.52103 14.4328C1.24438 12.9078 0.545455 10.996 0.545455 9C0.545455 4.3382 4.3382 0.545455 9 0.545455Z" fill="#6B3E3B"/>
<path d="M9.0002 10.6137C10.9463 10.6137 12.5238 9.0361 12.5238 7.09004C12.5238 5.14399 10.9463 3.56641 9.0002 3.56641C7.05415 3.56641 5.47656 5.14399 5.47656 7.09004C5.47656 9.0361 7.05415 10.6137 9.0002 10.6137Z" fill="#6B3E3B"/>
</svg>
