<svg width="18" height="18" viewBox="0 0 18 18" fill="none" xmlns="http://www.w3.org/2000/svg">
<path d="M16.6077 9.29871C18.4641 7.17548 18.4641 3.72076 16.6077 1.59752C15.7074 0.5673 14.5097 0 13.2358 0C13.2354 0 13.2354 0 13.2354 0C11.9615 0 10.7634 0.5673 9.86276 1.59752L9 2.58404L8.13724 1.59752C7.23659 0.5673 6.03886 0 4.7646 0C3.49071 0 2.29297 0.5673 1.39233 1.59752C-0.464109 3.72076 -0.464109 7.17548 1.39233 9.29871L9 18L16.6077 9.29871ZM1.92574 2.1941C2.68422 1.32639 3.6929 0.848616 4.7646 0.848616C5.83667 0.848616 6.84535 1.32639 7.60383 2.1941L9 3.79119L10.3962 2.1941C11.1547 1.32639 12.1633 0.848616 13.2354 0.848616C14.3075 0.848616 15.3158 1.32639 16.0743 2.1941C17.6434 3.9885 17.6434 6.90774 16.0743 8.70214L9 16.7933L1.92574 8.70214C0.356639 6.90774 0.356639 3.98807 1.92574 2.1941Z" fill="#6B3E3B"/>
</svg>
