<svg width="20" height="19" viewBox="0 0 20 19" fill="none" xmlns="http://www.w3.org/2000/svg">
<path d="M18.1905 1.80952C17.0159 0.634921 15.4921 0 13.873 0C12.4444 0 11.0794 0.47619 10 1.39683C8.92063 0.507936 7.55556 0 6.12698 0C4.47619 0 2.95238 0.634921 1.80952 1.80952C0.63492 2.95238 0 4.50794 0 6.12698C0 7.74603 0.63492 9.30159 1.80952 10.4444L9.5873 18.2222C9.65079 18.3492 9.80952 18.4127 9.96825 18.4127C10.127 18.4127 10.2857 18.3492 10.4127 18.2222L18.1905 10.4762C19.3651 9.33333 20 7.77778 20 6.15873C20 4.53968 19.3333 2.95238 18.1905 1.80952Z" fill="white"/>
</svg>
